<svg width="143" height="135" viewBox="0 0 143 135" fill="none" xmlns="http://www.w3.org/2000/svg">
<g clip-path="url(#clip0_403_3081)">
<g filter="url(#filter0_d_403_3081)">
<path d="M86.6045 26.4672C86.6045 26.4672 93.0192 23.4553 93.5839 20.3556C94.1486 17.256 94.0884 17.729 93.8806 16.3682C93.6729 15.0075 94.3374 14.8156 95.1342 15.8565C95.9309 16.8975 95.0194 18.425 95.6603 18.3761C96.3013 18.3271 96.7885 17.4447 98.0317 15.8151C99.4595 13.9429 99.6521 13.5593 100.307 14.1112C100.962 14.6632 102.563 17.5786 100.417 19.987C98.2705 22.3955 97.8421 21.3795 96.0173 23.3687C94.1925 25.3579 93.7346 29.5404 92.0579 31.1183C90.3812 32.6962 87.7928 31.3268 87.0376 30.3471C85.8761 28.8414 86.6045 26.4672 86.6045 26.4672Z" fill="#FFD6D6"/>
</g>
<g filter="url(#filter1_d_403_3081)">
<path d="M96.253 32.2556C96.253 32.2556 92.9169 38.1965 88.6256 39.1364C84.1502 39.7559 83.7128 40.8941 81.9124 42.3463C79.9098 43.6929 74.6091 45.6267 68.9419 40.3707C63.4422 35.2824 62.8168 30.3054 60.8426 20.7764C64.2211 21.9731 65.7268 21.3392 65.7268 21.3392C66.6886 22.11 68.2271 24.3383 72.167 26.6598C76.5989 29.2728 77.6718 29.3507 81.3249 26.8838C81.9299 26.4783 86.193 23.4485 86.193 23.4485L96.253 32.2556Z" fill="#FF6D6D"/>
</g>
<g filter="url(#filter2_d_403_3081)">
<path d="M23.5003 98.7771L15.8372 100.155L25.3229 117.685C25.3229 117.685 26.6484 116.461 26.3166 113.781C25.9847 111.101 26.9105 104.738 28.8019 102.375L26.4827 98.7771H23.5003Z" fill="#BFDDFF"/>
</g>
<g filter="url(#filter3_d_403_3081)">
<path d="M67.6385 98.7772L61.0759 104.595L80.0472 114.7C79.8706 113.208 79.2664 111.799 78.3076 110.643C76.733 108.805 73.6823 104.298 74.5795 101.609L71.8457 98.0881L67.6385 98.7772Z" fill="#BFDDFF"/>
</g>
<g filter="url(#filter4_d_403_3081)">
<path d="M27.7633 104.271C27.7633 104.271 32.8225 99.8026 38.1659 95.3246C40.2095 93.6119 47.6287 87.8542 50.3154 85.0539C57.466 77.6002 62.0853 70.6233 64.3969 61.2798C66.2905 53.6252 64.9608 45.7126 64.9608 45.7126L54.6498 42.6645C54.6498 42.6645 53.0864 42.5484 51.8437 44.2325C50.601 45.9166 50.0039 45.6699 48.3059 50.5424C46.8131 54.8268 47.6999 59.6702 46.6229 63.1915C45.546 66.7129 44.9155 66.1724 43.5073 70.0772C42.099 73.982 42.0421 75.1306 39.4741 76.8137C36.906 78.4969 34.9579 79.3593 33.1517 82.1716C31.8077 84.2656 30.6184 87.433 28.1784 89.0811C25.4622 90.9156 23.0743 95.333 22.8005 99.0106L27.7633 104.271Z" fill="#80BBFF"/>
</g>
<g filter="url(#filter5_d_403_3081)">
<path d="M47.6824 48.7803C46.9886 51.3095 45.8886 54.9612 48.8486 58.9757C50.5328 61.2601 56.0689 65.4471 59.3576 67.1409C62.0619 68.5334 69.1108 72.0258 70.5616 73.89C72.6377 76.5566 71.6225 78.5876 69.8081 83.0834C68.6787 85.8813 68.1789 88.529 67.8536 92.4146C67.6332 95.0485 67.8805 96.7205 67.4065 98.9828L74.4306 102.375C74.4306 102.375 79.8375 90.5356 81.4191 86.7902C85.1226 78.0199 89.2472 69.6718 83.4005 64.3971C80.1709 61.4832 78.0286 60.0507 73.512 56.6722C68.5509 52.961 66.6841 51.8777 66.1144 48.8605C65.3311 44.7116 67.7099 41.7147 67.7099 41.7147L51.748 41.5833C51.748 41.5833 49.1051 43.594 47.6824 48.7803Z" fill="#80BBFF"/>
</g>
<g filter="url(#filter6_d_403_3081)">
<path d="M66.8642 17.4818C66.6251 18.716 66.6069 19.9554 66.5126 21.1311C66.5126 21.1311 64.6708 22.168 62.277 19.6179L64.1763 15.54L66.8642 17.4818Z" fill="#FFD6D6"/>
</g>
<g filter="url(#filter7_d_403_3081)">
<path d="M73.4545 10.5084C73.4608 10.539 73.4643 10.5615 73.4677 10.5748C73.47 10.5788 73.4712 10.5834 73.471 10.5881C73.4956 10.7105 73.516 10.834 73.5331 10.9634C73.7179 12.3559 74.8083 13.4363 74.8054 13.8195C74.8025 14.2026 73.9908 14.4568 73.6031 14.4894C73.2154 14.522 72.7383 16.3032 71.1572 17.3284C69.6729 18.2909 67.454 18.1607 65.9916 17.4058C65.4288 14.4245 65.533 12.3228 68.6577 10.9965C72.0686 9.54758 72.3049 8.18237 72.3049 8.18237C72.8657 8.85633 73.2595 9.65328 73.4545 10.5084Z" fill="#FFD6D6"/>
</g>
<g filter="url(#filter8_d_403_3081)">
<path d="M61.4806 5.94813C63.2579 5.94813 64.6986 4.61676 64.6986 2.97443C64.6986 1.3321 63.2579 0.000732422 61.4806 0.000732422C59.7032 0.000732422 58.2625 1.3321 58.2625 2.97443C58.2625 4.61676 59.7032 5.94813 61.4806 5.94813Z" fill="#4099FF"/>
</g>
<g filter="url(#filter9_d_403_3081)">
<path d="M72.2945 11.5825C72.5037 11.8004 72.7859 11.9333 73.0869 11.9557C73.388 11.9781 73.6867 11.8885 73.9258 11.704C74.0992 11.5696 74.2267 11.3849 74.291 11.1751C74.3393 11.0185 74.0837 10.9198 74.0347 11.0782C73.9689 11.2957 73.8223 11.4797 73.625 11.5923C73.4277 11.7048 73.1948 11.7373 72.9743 11.6831C72.7987 11.6457 72.6383 11.5564 72.5139 11.4268C72.3957 11.3057 72.175 11.4603 72.2945 11.5825Z" fill="#BFDDFF"/>
</g>
<g filter="url(#filter10_d_403_3081)">
<path d="M70.3283 46.7867C65.0457 48.5569 62.8539 49.1682 55.7179 49.1067C49.5275 49.0533 44.1074 46.5819 44.1074 46.5819C44.1074 46.5819 42.8464 41.5376 46.1148 37.494C50.8338 32.9579 49.2181 31.2357 51.9565 27.8065C53.5119 25.6961 54.7501 24.3484 56.8126 22.6499C58.2412 21.474 59.9518 20.0072 62.2966 19.5752C62.2966 19.5752 63.8459 20.885 66.5282 20.9462C65.7268 36.1651 70.3283 46.7867 70.3283 46.7867Z" fill="#FF6D6D"/>
</g>
<g filter="url(#filter11_d_403_3081)">
<path d="M73.4713 10.5897C74.0582 5.92272 69.4143 4.71191 65.6596 4.62117C63.6955 4.57374 62.2649 5.10745 61.2662 5.8733C59.708 6.05064 58.2606 5.10026 57.9292 3.68227C57.8936 3.54593 57.6681 3.61035 57.7038 3.74623C58.0402 5.15826 59.416 6.14857 60.981 6.10649C60.3138 6.69017 59.8185 7.44511 59.5485 8.28987C59.2653 9.20796 58.6244 10.9745 57.113 12.2479C55.6016 13.5213 55.1541 15.881 55.1541 15.881C60.125 18.6199 67.2192 18.287 67.2192 18.287C68.2948 15.7232 66.7051 13.9136 68.1838 12.4208C67.9539 12.798 67.8253 13.2282 67.8102 13.6697C67.7677 15.2346 69.1655 16.7694 68.0019 18.2487C67.9128 18.3616 68.0809 18.5142 68.2087 18.3529C68.7629 17.6483 68.8086 16.9334 68.6192 16.0901C68.4804 15.4735 68.2064 14.8922 68.1139 14.2659C68.0425 13.786 68.0949 13.2958 68.2661 12.842C68.4374 12.3881 68.7218 11.9857 69.0923 11.6729C72.132 9.68888 72.3037 8.1826 72.3037 8.1826C72.8812 8.87895 73.2818 9.7048 73.4713 10.5897Z" fill="#4099FF"/>
</g>
<g filter="url(#filter12_d_403_3081)">
<path d="M46.3149 40.3365C46.3149 40.3365 48.0965 46.7198 51.2923 47.738C54.488 48.7561 53.9958 48.6242 55.4757 48.6541C56.9557 48.6839 57.0471 49.3235 55.807 49.8855C54.5669 50.4476 53.0992 49.3653 53.0429 49.9604C52.9867 50.5554 53.8411 51.1444 55.3611 52.5463C57.1073 54.157 57.4823 54.3953 56.7855 54.906C56.0888 55.4166 52.7224 56.4125 50.529 54.0573C48.3356 51.7021 49.4855 51.4738 47.6823 49.4807C45.8792 47.4875 41.5154 46.3923 40.1236 44.601C38.7319 42.8096 40.8591 40.952 41.8931 40.592C42.939 40.2278 46.3149 40.3365 46.3149 40.3365Z" fill="#FFD6D6"/>
</g>
<g filter="url(#filter13_d_403_3081)">
<path d="M38.0419 48.9468C38.0419 48.9468 33.1938 44.9062 33.3881 40.3257C33.5807 35.7835 31.5877 34.6614 31.6952 32.5884C31.8667 29.2796 31.6323 25.4347 37.96 22.0941C45.0815 18.3344 48.9056 18.8159 61.0913 20.1296L64.9599 23.556C65.0243 23.556 61.7922 25.17 56.2477 26.3868C51.9008 27.3405 47.6542 29.1481 46.6015 32.2003C45.4397 35.5725 50.1553 40.3582 50.1553 40.3582L38.0419 48.9468Z" fill="#FF6D6D"/>
</g>
</g>
<g clip-path="url(#clip1_403_3081)">
<path d="M4.75872 116.712H135.085V121.312H3.30269V118.165C3.30267 117.974 3.34031 117.785 3.41348 117.609C3.48664 117.433 3.59389 117.273 3.72909 117.138C3.8643 117.003 4.02482 116.896 4.20148 116.823C4.37815 116.75 4.5675 116.712 4.75872 116.712Z" fill="#BFDDFF"/>
<path d="M117.197 57.4083L120.874 54.8638L128.07 121.339L124.393 123.884L117.197 57.4083Z" fill="#F7F9FA"/>
<path d="M11.2965 128.75H19.8326V134.573H11.2965V128.75Z" fill="#BFDDFF"/>
<path d="M121.984 128.75H130.52V134.573H121.984V128.75Z" fill="#BFDDFF"/>
<path d="M126.826 107.755C112.588 107.755 111.638 115.43 106.244 117.686C103.842 118.691 95.811 119.142 95.811 119.142H0V131.952H142.273V119.142C142.273 119.142 142.273 107.755 126.826 107.755Z" fill="#F2F8FF"/>
<path d="M125.683 125.241C128.481 125.241 130.749 123.153 130.749 120.576C130.749 117.999 128.481 115.911 125.683 115.911C122.885 115.911 120.617 117.999 120.617 120.576C120.617 123.153 122.885 125.241 125.683 125.241Z" fill="#FF9898"/>
<path d="M125.683 122.584C126.888 122.584 127.864 121.685 127.864 120.576C127.864 119.467 126.888 118.568 125.683 118.568C124.479 118.568 123.503 119.467 123.503 120.576C123.503 121.685 124.479 122.584 125.683 122.584Z" fill="#F7F9FA"/>
<path d="M121.368 58.8144L132.596 52.254L130.307 48.6492L104.637 63.6488V67.2536L122.25 66.9879L121.368 58.8144Z" fill="#F2F8FF"/>
<path d="M114.755 61.2417H95.9025C95.4972 61.2417 95.1686 61.5695 95.1686 61.9738V62.939C95.1686 63.3433 95.4972 63.6711 95.9025 63.6711H114.755C115.161 63.6711 115.489 63.3433 115.489 62.939V61.9738C115.489 61.5695 115.161 61.2417 114.755 61.2417Z" fill="#BFDDFF"/>
</g>
<defs>
<filter id="filter0_d_403_3081" x="62.379" y="-4.12036" width="63.1188" height="65.9578" filterUnits="userSpaceOnUse" color-interpolation-filters="sRGB">
<feFlood flood-opacity="0" result="BackgroundImageFix"/>
<feColorMatrix in="SourceAlpha" type="matrix" values="0 0 0 0 0 0 0 0 0 0 0 0 0 0 0 0 0 0 127 0" result="hardAlpha"/>
<feOffset dy="6"/>
<feGaussianBlur stdDeviation="12"/>
<feComposite in2="hardAlpha" operator="out"/>
<feColorMatrix type="matrix" values="0 0 0 0 0 0 0 0 0 0 0 0 0 0 0 0 0 0 0.04 0"/>
<feBlend mode="normal" in2="BackgroundImageFix" result="effect1_dropShadow_403_3081"/>
<feBlend mode="normal" in="SourceGraphic" in2="effect1_dropShadow_403_3081" result="shape"/>
</filter>
<filter id="filter1_d_403_3081" x="36.8426" y="2.77637" width="83.4104" height="71.0581" filterUnits="userSpaceOnUse" color-interpolation-filters="sRGB">
<feFlood flood-opacity="0" result="BackgroundImageFix"/>
<feColorMatrix in="SourceAlpha" type="matrix" values="0 0 0 0 0 0 0 0 0 0 0 0 0 0 0 0 0 0 127 0" result="hardAlpha"/>
<feOffset dy="6"/>
<feGaussianBlur stdDeviation="12"/>
<feComposite in2="hardAlpha" operator="out"/>
<feColorMatrix type="matrix" values="0 0 0 0 0 0 0 0 0 0 0 0 0 0 0 0 0 0 0.04 0"/>
<feBlend mode="normal" in2="BackgroundImageFix" result="effect1_dropShadow_403_3081"/>
<feBlend mode="normal" in="SourceGraphic" in2="effect1_dropShadow_403_3081" result="shape"/>
</filter>
<filter id="filter2_d_403_3081" x="-8.1628" y="80.7771" width="60.9647" height="66.9082" filterUnits="userSpaceOnUse" color-interpolation-filters="sRGB">
<feFlood flood-opacity="0" result="BackgroundImageFix"/>
<feColorMatrix in="SourceAlpha" type="matrix" values="0 0 0 0 0 0 0 0 0 0 0 0 0 0 0 0 0 0 127 0" result="hardAlpha"/>
<feOffset dy="6"/>
<feGaussianBlur stdDeviation="12"/>
<feComposite in2="hardAlpha" operator="out"/>
<feColorMatrix type="matrix" values="0 0 0 0 0 0 0 0 0 0 0 0 0 0 0 0 0 0 0.04 0"/>
<feBlend mode="normal" in2="BackgroundImageFix" result="effect1_dropShadow_403_3081"/>
<feBlend mode="normal" in="SourceGraphic" in2="effect1_dropShadow_403_3081" result="shape"/>
</filter>
<filter id="filter3_d_403_3081" x="37.0759" y="80.0881" width="66.9714" height="64.6118" filterUnits="userSpaceOnUse" color-interpolation-filters="sRGB">
<feFlood flood-opacity="0" result="BackgroundImageFix"/>
<feColorMatrix in="SourceAlpha" type="matrix" values="0 0 0 0 0 0 0 0 0 0 0 0 0 0 0 0 0 0 127 0" result="hardAlpha"/>
<feOffset dy="6"/>
<feGaussianBlur stdDeviation="12"/>
<feComposite in2="hardAlpha" operator="out"/>
<feColorMatrix type="matrix" values="0 0 0 0 0 0 0 0 0 0 0 0 0 0 0 0 0 0 0.04 0"/>
<feBlend mode="normal" in2="BackgroundImageFix" result="effect1_dropShadow_403_3081"/>
<feBlend mode="normal" in="SourceGraphic" in2="effect1_dropShadow_403_3081" result="shape"/>
</filter>
<filter id="filter4_d_403_3081" x="-1.19949" y="24.6628" width="90.6139" height="109.608" filterUnits="userSpaceOnUse" color-interpolation-filters="sRGB">
<feFlood flood-opacity="0" result="BackgroundImageFix"/>
<feColorMatrix in="SourceAlpha" type="matrix" values="0 0 0 0 0 0 0 0 0 0 0 0 0 0 0 0 0 0 127 0" result="hardAlpha"/>
<feOffset dy="6"/>
<feGaussianBlur stdDeviation="12"/>
<feComposite in2="hardAlpha" operator="out"/>
<feColorMatrix type="matrix" values="0 0 0 0 0 0 0 0 0 0 0 0 0 0 0 0 0 0 0.04 0"/>
<feBlend mode="normal" in2="BackgroundImageFix" result="effect1_dropShadow_403_3081"/>
<feBlend mode="normal" in="SourceGraphic" in2="effect1_dropShadow_403_3081" result="shape"/>
</filter>
<filter id="filter5_d_403_3081" x="22.8952" y="23.5833" width="87.4278" height="108.792" filterUnits="userSpaceOnUse" color-interpolation-filters="sRGB">
<feFlood flood-opacity="0" result="BackgroundImageFix"/>
<feColorMatrix in="SourceAlpha" type="matrix" values="0 0 0 0 0 0 0 0 0 0 0 0 0 0 0 0 0 0 127 0" result="hardAlpha"/>
<feOffset dy="6"/>
<feGaussianBlur stdDeviation="12"/>
<feComposite in2="hardAlpha" operator="out"/>
<feColorMatrix type="matrix" values="0 0 0 0 0 0 0 0 0 0 0 0 0 0 0 0 0 0 0.04 0"/>
<feBlend mode="normal" in2="BackgroundImageFix" result="effect1_dropShadow_403_3081"/>
<feBlend mode="normal" in="SourceGraphic" in2="effect1_dropShadow_403_3081" result="shape"/>
</filter>
<filter id="filter6_d_403_3081" x="38.277" y="-2.45996" width="52.5872" height="53.7996" filterUnits="userSpaceOnUse" color-interpolation-filters="sRGB">
<feFlood flood-opacity="0" result="BackgroundImageFix"/>
<feColorMatrix in="SourceAlpha" type="matrix" values="0 0 0 0 0 0 0 0 0 0 0 0 0 0 0 0 0 0 127 0" result="hardAlpha"/>
<feOffset dy="6"/>
<feGaussianBlur stdDeviation="12"/>
<feComposite in2="hardAlpha" operator="out"/>
<feColorMatrix type="matrix" values="0 0 0 0 0 0 0 0 0 0 0 0 0 0 0 0 0 0 0.04 0"/>
<feBlend mode="normal" in2="BackgroundImageFix" result="effect1_dropShadow_403_3081"/>
<feBlend mode="normal" in="SourceGraphic" in2="effect1_dropShadow_403_3081" result="shape"/>
</filter>
<filter id="filter7_d_403_3081" x="41.7274" y="-9.81763" width="57.0781" height="57.8289" filterUnits="userSpaceOnUse" color-interpolation-filters="sRGB">
<feFlood flood-opacity="0" result="BackgroundImageFix"/>
<feColorMatrix in="SourceAlpha" type="matrix" values="0 0 0 0 0 0 0 0 0 0 0 0 0 0 0 0 0 0 127 0" result="hardAlpha"/>
<feOffset dy="6"/>
<feGaussianBlur stdDeviation="12"/>
<feComposite in2="hardAlpha" operator="out"/>
<feColorMatrix type="matrix" values="0 0 0 0 0 0 0 0 0 0 0 0 0 0 0 0 0 0 0.04 0"/>
<feBlend mode="normal" in2="BackgroundImageFix" result="effect1_dropShadow_403_3081"/>
<feBlend mode="normal" in="SourceGraphic" in2="effect1_dropShadow_403_3081" result="shape"/>
</filter>
<filter id="filter8_d_403_3081" x="34.2625" y="-17.9993" width="54.4362" height="53.9475" filterUnits="userSpaceOnUse" color-interpolation-filters="sRGB">
<feFlood flood-opacity="0" result="BackgroundImageFix"/>
<feColorMatrix in="SourceAlpha" type="matrix" values="0 0 0 0 0 0 0 0 0 0 0 0 0 0 0 0 0 0 127 0" result="hardAlpha"/>
<feOffset dy="6"/>
<feGaussianBlur stdDeviation="12"/>
<feComposite in2="hardAlpha" operator="out"/>
<feColorMatrix type="matrix" values="0 0 0 0 0 0 0 0 0 0 0 0 0 0 0 0 0 0 0.04 0"/>
<feBlend mode="normal" in2="BackgroundImageFix" result="effect1_dropShadow_403_3081"/>
<feBlend mode="normal" in="SourceGraphic" in2="effect1_dropShadow_403_3081" result="shape"/>
</filter>
<filter id="filter9_d_403_3081" x="48.2601" y="-7.0022" width="50.037" height="48.9612" filterUnits="userSpaceOnUse" color-interpolation-filters="sRGB">
<feFlood flood-opacity="0" result="BackgroundImageFix"/>
<feColorMatrix in="SourceAlpha" type="matrix" values="0 0 0 0 0 0 0 0 0 0 0 0 0 0 0 0 0 0 127 0" result="hardAlpha"/>
<feOffset dy="6"/>
<feGaussianBlur stdDeviation="12"/>
<feComposite in2="hardAlpha" operator="out"/>
<feColorMatrix type="matrix" values="0 0 0 0 0 0 0 0 0 0 0 0 0 0 0 0 0 0 0.04 0"/>
<feBlend mode="normal" in2="BackgroundImageFix" result="effect1_dropShadow_403_3081"/>
<feBlend mode="normal" in="SourceGraphic" in2="effect1_dropShadow_403_3081" result="shape"/>
</filter>
<filter id="filter10_d_403_3081" x="19.8682" y="1.5752" width="74.4601" height="77.5356" filterUnits="userSpaceOnUse" color-interpolation-filters="sRGB">
<feFlood flood-opacity="0" result="BackgroundImageFix"/>
<feColorMatrix in="SourceAlpha" type="matrix" values="0 0 0 0 0 0 0 0 0 0 0 0 0 0 0 0 0 0 127 0" result="hardAlpha"/>
<feOffset dy="6"/>
<feGaussianBlur stdDeviation="12"/>
<feComposite in2="hardAlpha" operator="out"/>
<feColorMatrix type="matrix" values="0 0 0 0 0 0 0 0 0 0 0 0 0 0 0 0 0 0 0.04 0"/>
<feBlend mode="normal" in2="BackgroundImageFix" result="effect1_dropShadow_403_3081"/>
<feBlend mode="normal" in="SourceGraphic" in2="effect1_dropShadow_403_3081" result="shape"/>
</filter>
<filter id="filter11_d_403_3081" x="31.1541" y="-14.3933" width="66.3678" height="62.8162" filterUnits="userSpaceOnUse" color-interpolation-filters="sRGB">
<feFlood flood-opacity="0" result="BackgroundImageFix"/>
<feColorMatrix in="SourceAlpha" type="matrix" values="0 0 0 0 0 0 0 0 0 0 0 0 0 0 0 0 0 0 127 0" result="hardAlpha"/>
<feOffset dy="6"/>
<feGaussianBlur stdDeviation="12"/>
<feComposite in2="hardAlpha" operator="out"/>
<feColorMatrix type="matrix" values="0 0 0 0 0 0 0 0 0 0 0 0 0 0 0 0 0 0 0.04 0"/>
<feBlend mode="normal" in2="BackgroundImageFix" result="effect1_dropShadow_403_3081"/>
<feBlend mode="normal" in="SourceGraphic" in2="effect1_dropShadow_403_3081" result="shape"/>
</filter>
<filter id="filter12_d_403_3081" x="15.6656" y="22.3213" width="65.4501" height="63.2358" filterUnits="userSpaceOnUse" color-interpolation-filters="sRGB">
<feFlood flood-opacity="0" result="BackgroundImageFix"/>
<feColorMatrix in="SourceAlpha" type="matrix" values="0 0 0 0 0 0 0 0 0 0 0 0 0 0 0 0 0 0 127 0" result="hardAlpha"/>
<feOffset dy="6"/>
<feGaussianBlur stdDeviation="12"/>
<feComposite in2="hardAlpha" operator="out"/>
<feColorMatrix type="matrix" values="0 0 0 0 0 0 0 0 0 0 0 0 0 0 0 0 0 0 0.04 0"/>
<feBlend mode="normal" in2="BackgroundImageFix" result="effect1_dropShadow_403_3081"/>
<feBlend mode="normal" in="SourceGraphic" in2="effect1_dropShadow_403_3081" result="shape"/>
</filter>
<filter id="filter13_d_403_3081" x="7.69098" y="1.16724" width="81.2699" height="77.7795" filterUnits="userSpaceOnUse" color-interpolation-filters="sRGB">
<feFlood flood-opacity="0" result="BackgroundImageFix"/>
<feColorMatrix in="SourceAlpha" type="matrix" values="0 0 0 0 0 0 0 0 0 0 0 0 0 0 0 0 0 0 127 0" result="hardAlpha"/>
<feOffset dy="6"/>
<feGaussianBlur stdDeviation="12"/>
<feComposite in2="hardAlpha" operator="out"/>
<feColorMatrix type="matrix" values="0 0 0 0 0 0 0 0 0 0 0 0 0 0 0 0 0 0 0.04 0"/>
<feBlend mode="normal" in2="BackgroundImageFix" result="effect1_dropShadow_403_3081"/>
<feBlend mode="normal" in="SourceGraphic" in2="effect1_dropShadow_403_3081" result="shape"/>
</filter>
<clipPath id="clip0_403_3081">
<rect width="85.661" height="117.685" fill="white" transform="translate(15.8372)"/>
</clipPath>
<clipPath id="clip1_403_3081">
<rect width="142.273" height="85.9235" fill="white" transform="translate(0 48.6492)"/>
</clipPath>
</defs>
</svg>
