<svg width="22" height="22" viewBox="0 0 22 22" fill="none" xmlns="http://www.w3.org/2000/svg">
<path d="M18.0711 3.92893C20.2528 6.1107 22.1508 10.6407 20.1571 14.4596C19.9501 14.856 19.8466 15.0543 19.8087 15.1495C19.6478 15.5538 19.6242 15.7601 19.6897 16.1903C19.7052 16.2916 19.7397 16.4249 19.8088 16.6915C20.0161 17.4912 20.1197 17.8911 20.1092 18.1825C20.0715 19.2306 19.2306 20.0715 18.1825 20.1092C17.8911 20.1197 17.4912 20.0161 16.6915 19.8088C16.4248 19.7397 16.2915 19.7052 16.1896 19.6897C15.7594 19.6244 15.547 19.6491 15.1432 19.8115C15.0476 19.85 14.852 19.9531 14.4609 20.1594C10.6559 22.1664 6.20352 20.3457 3.92893 18.0711C0.023689 14.1658 0.023689 7.83418 3.92893 3.92893C7.83418 0.023689 14.1658 0.023689 18.0711 3.92893Z" stroke="#72777A" stroke-width="1.5"/>
<path d="M7.85785 10.8579C7.85785 11.4102 7.41013 11.8579 6.85785 11.8579C6.30556 11.8579 5.85785 11.4102 5.85785 10.8579C5.85785 10.3056 6.30556 9.85791 6.85785 9.85791C7.41013 9.85791 7.85785 10.3056 7.85785 10.8579Z" fill="#72777A"/>
<path d="M11.8578 10.8579C11.8578 11.4102 11.4101 11.8579 10.8578 11.8579C10.3056 11.8579 9.85785 11.4102 9.85785 10.8579C9.85785 10.3056 10.3056 9.85791 10.8578 9.85791C11.4101 9.85791 11.8578 10.3056 11.8578 10.8579Z" fill="#72777A"/>
<path d="M15.8578 10.8579C15.8578 11.4102 15.4101 11.8579 14.8578 11.8579C14.3056 11.8579 13.8578 11.4102 13.8578 10.8579C13.8578 10.3056 14.3056 9.85791 14.8578 9.85791C15.4101 9.85791 15.8578 10.3056 15.8578 10.8579Z" fill="#72777A"/>
</svg>
