<svg width="18" height="23" viewBox="0 0 18 23" fill="none" xmlns="http://www.w3.org/2000/svg">
<path d="M12.1313 1.61489C11.4327 1.22405 10.6262 1 9.76207 1H8.06704C5.13626 1 2.86867 3.58064 3.23219 6.50234L3.31118 7.13719C3.45664 8.30631 3.03157 9.4741 2.16969 10.2731C0.992455 11.3645 0.665385 13.1016 1.3645 14.5496L1.46737 14.7627C2.12806 16.1311 3.50886 17 5.02271 17H13.2054C14.5027 17 15.7101 16.3342 16.4066 15.2347C17.3898 13.6826 17.1294 11.6465 15.7876 10.3945L15.7439 10.3538C15.3324 9.96984 15.0152 9.50669 14.8054 9C14.7197 8.79308 14.6519 8.5789 14.6028 8.35988M6.15915 20L6.45776 20.4C7.8015 22.2 10.489 22.2 11.8327 20.4L12.1313 20" stroke="#72777A" stroke-width="1.5" stroke-linecap="round"/>
</svg>
